<svg width="41" height="40" viewBox="0 0 41 40" fill="none" xmlns="http://www.w3.org/2000/svg">
<g clip-path="url(#clip0_161_7925)">
<path d="M29.5326 0H10.8659C4.97485 0 0.199219 4.77563 0.199219 10.6667V29.3333C0.199219 35.2244 4.97485 40 10.8659 40H29.5326C35.4236 40 40.1992 35.2244 40.1992 29.3333V10.6667C40.1992 4.77563 35.4236 0 29.5326 0Z" fill="#FEFEFE"/>
<path d="M15.1416 18.4503H13.6957C12.8466 18.4503 12.1582 19.1386 12.1582 19.9878V31.6045C12.1582 32.4537 12.8466 33.142 13.6957 33.142H14.8915C15.7407 33.142 16.429 32.4537 16.429 31.6045V26.7586C16.429 26.1264 16.816 25.5587 17.4043 25.3276L19.7367 24.4114C20.5442 24.094 21.4543 24.5074 21.7466 25.3243L24.1789 32.1225C24.3976 32.7339 24.977 33.142 25.6265 33.142H27.0029C28.0819 33.142 28.8252 32.0596 28.4379 31.0525L25.5056 23.4286C25.2075 22.6535 25.5787 21.7819 26.344 21.4596L27.2758 21.0673C27.8458 20.8273 28.2165 20.2688 28.2165 19.6503V12.642C28.2165 11.7928 27.5282 11.1045 26.679 11.1045H25.4832C24.634 11.1045 23.9457 11.7928 23.9457 12.642V17.4395C23.9457 18.053 23.581 18.6078 23.0177 18.8511L18.2269 20.9197C17.377 21.2868 16.429 20.6636 16.429 19.7377C16.429 19.0267 15.8526 18.4503 15.1416 18.4503Z" fill="#212121"/>
<path d="M20.4435 7.8584H15.9164C15.0673 7.8584 14.3789 8.54675 14.3789 9.3959V15.0334C14.3789 15.8825 15.0673 16.5709 15.9164 16.5709H20.4435C21.2927 16.5709 21.981 15.8825 21.981 15.0334V9.3959C21.981 8.54675 21.2927 7.8584 20.4435 7.8584Z" fill="#212121"/>
</g>
<defs>
<clipPath id="clip0_161_7925">
<rect width="41" height="40" fill="white"/>
</clipPath>
</defs>
</svg>
